<?xml version="1.0" standalone="no"?>
<!DOCTYPE svg PUBLIC "-//W3C//DTD SVG 20010904//EN"
 "http://www.w3.org/TR/2001/REC-SVG-20010904/DTD/svg10.dtd">
<svg version="1.0" xmlns="http://www.w3.org/2000/svg"
 width="1000.000000pt" height="1000.000000pt" viewBox="0 0 1000.000000 1000.000000"
 preserveAspectRatio="xMidYMid meet">

<g transform="translate(0.000000,1000.000000) scale(0.100000,-0.100000)"
fill="#000000" stroke="none">
<path d="M2375 7880 c-573 -48 -1101 -295 -1515 -710 -213 -212 -355 -413
-491 -695 -121 -251 -147 -339 -248 -834 l-90 -437 -1 -269 c-2 -239 0 -280
18 -360 11 -49 30 -155 42 -235 87 -587 257 -1019 538 -1372 368 -461 899
-743 1572 -834 169 -23 510 -23 678 0 536 72 978 272 1314 595 253 242 426
521 552 889 48 142 105 360 109 417 2 38 1 38 -48 52 -62 17 -200 18 -240 3
-89 -34 -137 -105 -204 -302 -124 -364 -257 -585 -479 -799 -159 -154 -331
-262 -542 -339 -105 -39 -352 -103 -480 -124 -777 -129 -1488 144 -1924 738
-295 402 -455 949 -456 1554 l0 102 2214 0 c2010 0 2214 1 2220 16 3 9 6 93 6
187 -1 851 -194 1466 -612 1952 -376 436 -898 719 -1468 794 -112 15 -352 21
-465 11z m447 -415 c377 -50 721 -215 996 -480 122 -117 200 -211 293 -353
166 -255 287 -574 343 -913 24 -140 47 -414 37 -425 -8 -7 -3990 -4 -3994 4
-8 13 13 234 33 357 83 494 276 900 579 1217 116 122 213 203 346 291 236 155
567 272 865 306 121 14 386 12 502 -4z"/>
<path d="M5420 7741 c-95 -13 -131 -22 -128 -30 2 -4 446 -584 988 -1289 542
-706 986 -1286 988 -1290 1 -4 -477 -651 -1062 -1437 -704 -944 -1061 -1432
-1053 -1437 27 -16 157 -30 246 -26 147 8 257 60 368 175 28 30 440 580 915
1223 475 643 866 1169 871 1170 12 0 280 -364 1012 -1380 504 -698 708 -974
761 -1026 115 -113 239 -164 399 -164 81 0 214 17 235 30 10 6 -116 180 -466
645 -263 350 -723 960 -1020 1356 -300 398 -551 742 -563 769 -28 65 -27 132
3 196 13 29 255 353 538 720 811 1057 1338 1758 1325 1765 -31 17 -141 33
-227 32 -160 0 -277 -54 -397 -182 -34 -36 -407 -527 -828 -1090 -422 -563
-770 -1019 -775 -1015 -4 5 -337 455 -740 999 -403 545 -751 1014 -773 1043
-85 111 -205 197 -321 228 -63 18 -222 25 -296 15z"/>
</g>
</svg>
